<?xml version="1.0" encoding="utf-8"?>
<!-- Generator: Adobe Illustrator 19.0.0, SVG Export Plug-In . SVG Version: 6.00 Build 0)  -->
<svg version="1.1" id="layer" xmlns="http://www.w3.org/2000/svg" xmlns:xlink="http://www.w3.org/1999/xlink" x="0px" y="0px"
	 viewBox="-153 -46 652 652" style="enable-background:new -153 -46 652 652;" xml:space="preserve">
<style type="text/css">
	.st0{fill:#002D61;}
	.st1{fill:#E01737;}
</style>
<path class="st0" d="M46.1,329.8v-84.7h18.6V314H92v15.8H46.1z M277.9,329.8v-84.7h51.4v14.7h-32.9v19.5h25.7v14.6h-25.7v20.9h32.9
	v15.1C329.3,329.8,277.9,329.8,277.9,329.8z M369.2,258.9h-7.5v23.9h8.3c7.8,0,10.9-5,10.9-12.3S377,258.9,369.2,258.9 M382.4,329.9
	l-11.3-33.4h-9.4v33.4h-18.2v-84.8h26.2c4.9-0.3,9.9,0.3,14.6,1.6c9.8,3.8,15.9,13.6,14.9,24c0.1,5.2-1.1,10.2-3.7,14.7
	c-2,3.1-4.8,5.6-8.1,7.2l15.5,37.1L382.4,329.9z M7.3,297.8l-8.4-34.1l-8.1,34.1H7.3z M15,329.8l-4.6-17.4h-23.5l-4.2,17.4h-17.1
	L-9,245.1H9.9L34,329.8H15z M231.9,293h-9.1v22h9.1c7.8,0,12.7-2.7,12.7-11.2c0-8.5-4.8-11.1-12.7-11.1 M230.1,258.6h-7.4V279h5.9
	c7.7,0,13.6-1.3,13.6-10.5C242.3,260.6,237.3,258.7,230.1,258.6 M254.3,325.7c-6.2,3.4-13.4,4.8-20.5,4h-29v-84.6h28.9
	c6.7-0.8,13.5,0.5,19.4,3.7c5.4,4.5,8.4,11.3,8.1,18.4c0.2,4.6-1.2,9.2-4,13c-2.1,2.6-4.9,4.5-8.1,5.5c3.4,0.8,6.4,2.5,8.7,5.1
	c3.8,4.2,5.9,9.8,5.7,15.5C263.8,313.8,260.3,321,254.3,325.7 M465.3,329.8l-2.1-8c-4.8,6.2-12.2,9.7-20.1,9.3
	c-23.7,0-31.4-22.7-31.4-42.8c0-21.5,7.7-44.5,33-44.5c19.4,0,26.8,10.9,29.2,29.1l-16.9,2.7c-0.9-6.8-2.7-16.6-11.9-16.6
	c-13.6,0-13.6,19.6-13.6,28.9c0,9.3,0.4,28.2,14.3,28.2c9.8,0,11.1-9.1,11.3-16.8h-12.6v-14.6h28.9v45.2H465.3z M-73.3,245.1
	l-13.4,51.8h-0.2l-11.9-51.8H-126v84.7h15.1v-67.9h0.1l15.3,67.9h13.8l17-67.5h0.3v67.5h17.9v-84.7H-73.3z"/>
<path class="st1" d="M169.8,226.3l-27.3,6.8v51.8l-23-45.8l-28.6,7.2l20.5,83.7l16.1-4.1L112,261.9l30.8,59.8l13.3-3.3v-68.2
	c0,0,11.9,45.2,13.6,51.1c2.5,9.8,7.4,12.2,15.7,10.1l6.2-1.6L169.8,226.3z"/>
</svg>
