<svg xmlns="http://www.w3.org/2000/svg" viewBox="0 0 1440 320">

  <path fill="#5000CA" fill-opacity="0.1" d="M0,64L48,85.3C96,107,192,149,288,176C384,203,480,213,576,192C672,171,768,117,864,101.3C960,85,1056,107,1152,122.7C1248,139,1344,149,1392,154.7L1440,160L1440,0L1392,0C1344,0,1248,0,1152,0C1056,0,960,0,864,0C768,0,672,0,576,0C480,0,384,0,288,0C192,0,96,0,48,0L0,0Z"></path>
  <path fill="#5000CA" fill-opacity="0.05" d="M0,288L48,288C96,288,192,288,288,272C384,256,480,224,576,197.3C672,171,768,149,864,165.3C960,181,1056,235,1152,229.3C1248,224,1344,160,1392,128L1440,96L1440,0L1392,0C1344,0,1248,0,1152,0C1056,0,960,0,864,0C768,0,672,0,576,0C480,0,384,0,288,0C192,0,96,0,48,0L0,0Z"></path>
</svg>
